:FULLY-SPECIFIED
:FORCE-ALL-JOINTS-BE-3DOF
:DEGREES
3058
root -1.6704 15.9573 -34.2295 7.41065 3.35267 1.17889
lfemur -34.7881 4.50618 -3.26182
ltibia 55.4101 -0 0
lfoot -10.8646 -3.19839 -0.0115459
ltoes -42.9036 0 0
rfemur -36.6575 -5.03183 24.7819
rtibia 61.3122 -0 0
rfoot -20.7452 -27.7617 0.0171619
rtoes -2.07227 0 0
lowerback 13.13 0.283971 -1.29405
upperback -1.18821 0.3108 1.60718
thorax -8.68032 0.25483 2.38955
lowerneck 3.67555 -8.79772 -11.7799
upperneck -2.9723 -12.0683 9.58154
head -0.157305 -6.0908 4.75695
lclavicle -5.76476e-15 -3.97569e-15 0
lhumerus 13.4165 -44.2886 87.2966
lradius 70.4946 -0 0
lwrist -2.53457 0 0
lhand -28.3832 35.6302 -0.000165198
lfingers 7.12502 -0 0
lthumb -1.756 65.6022 -0.000159055
rclavicle -5.76476e-15 -3.97569e-15 0
rhumerus 19.1344 48.5548 -50.142
rradius 105.416 -0 0
rwrist -43.5524 0 0
rhand -7.61054 -37.1232 0.0165339
rfingers 7.12502 -0 0
rthumb 18.2835 -66.2834 0.0159778
3059
root -1.64341 15.9561 -34.2116 7.28579 3.98541 1.15603
lfemur -34.5525 4.30265 -3.45785
ltibia 55.0078 -0 0
lfoot -11.3553 -3.15342 -0.0103535
ltoes -43.3658 0 0
rfemur -36.3784 -4.81273 24.5314
rtibia 61.3012 -0 0
rfoot -20.4598 -27.6468 0.0153898
rtoes -2.70525 0 0
lowerback 13.0695 0.270596 -1.18441
upperback -1.18955 0.309475 1.59073
thorax -8.64601 0.248227 2.30947
lowerneck 3.5449 -8.63828 -11.6584
upperneck -2.83631 -11.8414 9.51562
head -0.132794 -5.97578 4.71494
lclavicle -5.76476e-15 -3.97569e-15 0
lhumerus 12.0117 -44.6417 87.9037
lradius 70.7535 -0 0
lwrist -1.86098 0 0
lhand -28.3839 36.0563 -0.000148138
lfingers 7.12502 -0 0
lthumb -1.75671 66.0283 -0.000142629
rclavicle -5.76476e-15 -3.97569e-15 0
rhumerus 16.8958 49.1943 -51.5692
rradius 106.069 -0 0
rwrist -43.1262 0 0
rhand -7.64995 -37.9251 0.0148254
rfingers 7.12502 -0 0
rthumb 18.2456 -67.0889 0.0143267
3060
root -1.61871 15.9547 -34.1947 7.16788 4.58128 1.13323
lfemur -34.33 4.11171 -3.64319
ltibia 54.629 -0 0
lfoot -11.8175 -3.11108 -0.00887826
ltoes -43.8011 0 0
rfemur -36.1166 -4.60528 24.2966
rtibia 61.2909 -0 0
rfoot -20.191 -27.5385 0.0131974
rtoes -3.30139 0 0
lowerback 13.0125 0.258105 -1.08113
upperback -1.19081 0.308227 1.57524
thorax -8.61368 0.242053 2.23404
lowerneck 3.42223 -8.48788 -11.5444
upperneck -2.70857 -11.6276 9.45409
head -0.109791 -5.86745 4.67544
lclavicle -5.76476e-15 -3.97569e-15 0
lhumerus 10.6761 -44.9643 88.4898
lradius 70.9974 -0 0
lwrist -1.2266 0 0
lhand -28.3846 36.4576 -0.000127033
lfingers 7.12502 -0 0
lthumb -1.75738 66.4296 -0.000122308
rclavicle -5.76476e-15 -3.97569e-15 0
rhumerus 14.7395 49.7623 -52.9644
rradius 106.684 -0 0
rwrist -42.7247 0 0
rhand -7.68705 -38.6803 0.012712
rfingers 7.12502 -0 0
rthumb 18.2099 -67.8475 0.0122844
3061
root -1.59655 15.9531 -34.179 7.05894 5.13024 1.11111
lfemur -34.1245 3.93642 -3.81458
ltibia 54.2799 -0 0
lfoot -12.2433 -3.07208 -0.00721683
ltoes -44.2021 0 0
rfemur -35.8761 -4.41321 24.0812
rtibia 61.2813 -0 0
rfoot -19.9434 -27.4388 0.010728
rtoes -3.85065 0 0
lowerback 12.96 0.246687 -0.985971
upperback -1.19198 0.307077 1.56097
thorax -8.58389 0.236402 2.16454
lowerneck 3.30951 -8.34909 -11.4397
upperneck -2.59118 -11.4304 9.39787
head -0.0886676 -5.76762 4.63908
lclavicle -5.76476e-15 -3.97569e-15 0
lhumerus 9.43482 -45.2529 89.042
lradius 71.222 -0 0
lwrist -0.642108 0 0
lhand -28.3853 36.8273 -0.000103262
lfingers 7.12502 -0 0
lthumb -1.758 66.7993 -9.94214e-05
rclavicle -5.76476e-15 -3.97569e-15 0
rhumerus 12.7122 50.2547 -54.2929
rradius 107.25 -0 0
rwrist -42.3549 0 0
rhand -7.7212 -39.3762 0.0103322
rfingers 7.12502 -0 0
rthumb 18.177 -68.5464 0.00998469
3062
root -1.57715 15.9516 -34.1648 6.96102 5.62226 1.09038
lfemur -33.9399 3.77983 -3.9687
ltibia 53.967 -0 0
lfoot -12.625 -3.03713 -0.00548132
ltoes -44.5616 0 0
rfemur -35.6613 -4.24027 23.8889
rtibia 61.2728 -0 0
rfoot -19.7214 -27.3495 0.00814842
rtoes -4.34296 0 0
lowerback 12.9129 0.236527 -0.900664
upperback -1.19302 0.306045 1.54818
thorax -8.55718 0.231367 2.10225
lowerneck 3.20873 -8.22452 -11.3461
upperneck -2.48619 -11.2536 9.34786
head -0.0697912 -5.67812 4.60653
lclavicle -5.76476e-15 -3.97569e-15 0
lhumerus 8.31358 -45.5043 89.5468
lradius 71.4234 -0 0
lwrist -0.118206 0 0
lhand -28.3858 37.1586 -7.84304e-05
lfingers 7.12502 -0 0
lthumb -1.75856 67.1306 -7.55135e-05
rclavicle -5.76476e-15 -3.97569e-15 0
rhumerus 10.8627 50.67 -55.5178
rradius 107.758 -0 0
rwrist -42.0234 0 0
rhand -7.75178 -39.9999 0.00784681
rfingers 7.12502 -0 0
rthumb 18.1476 -69.1729 0.00758286
3063
root -1.56075 15.9501 -34.1524 6.87621 6.04731 1.07177
lfemur -33.7802 3.64494 -4.10224
ltibia 53.6967 -0 0
lfoot -12.9547 -3.00695 -0.00379453
ltoes -44.8722 0 0
rfemur -35.4762 -4.0903 23.7232
rtibia 61.2654 -0 0
rfoot -19.5296 -27.2723 0.00564105
rtoes -4.7683 0 0
lowerback 12.8722 0.227806 -0.826956
upperback -1.19392 0.305154 1.53713
thorax -8.5341 0.227041 2.04843
lowerneck 3.12185 -8.11676 -11.2654
upperneck -2.39567 -11.1008 9.30495
head -0.0535265 -5.6008 4.57844
lclavicle -5.76476e-15 -3.97569e-15 0
lhumerus 7.33837 -45.7159 89.9903
lradius 71.5974 -0 0
lwrist 0.334417 0 0
lhand -28.3863 37.4449 -5.42954e-05
lfingers 7.12502 -0 0
lthumb -1.75903 67.4169 -5.22761e-05
rclavicle -5.76476e-15 -3.97569e-15 0
rhumerus 9.2408 51.0082 -56.6013
rradius 108.197 -0 0
rwrist -41.737 0 0
rhand -7.77818 -40.5388 0.00543159
rfingers 7.12502 -0 0
rthumb 18.1222 -69.7141 0.00524888
3064
root -1.54758 15.9488 -34.1423 6.80661 6.39536 1.05605
lfemur -33.6491 3.53476 -4.21186
ltibia 53.4753 -0 0
lfoot -13.2247 -2.98224 -0.00228388
ltoes -45.1265 0 0
rfemur -35.325 -3.96708 23.588
rtibia 61.2594 -0 0
rfoot -19.3725 -27.2091 0.00339537
rtoes -5.11661 0 0
lowerback 12.8389 0.220703 -0.766593
upperback -1.19466 0.304424 1.52808
thorax -8.5152 0.223514 2.00435
lowerneck 3.05083 -8.02843 -11.1995
upperneck -2.32166 -10.9756 9.27001
head -0.0402373 -5.53747 4.55546
lclavicle -5.76476e-15 -3.97569e-15 0
lhumerus 6.53531 -45.8852 90.3586
lradius 71.7398 -0 0
lwrist 0.70507 0 0
lhand -28.3867 37.6794 -3.26801e-05
lfingers 7.12502 -0 0
lthumb -1.75943 67.6514 -3.14647e-05
rclavicle -5.76476e-15 -3.97569e-15 0
rhumerus 7.89658 51.2705 -57.5054
rradius 108.556 -0 0
rwrist -41.5024 0 0
rhand -7.79978 -40.98 0.00326894
rfingers 7.12502 -0 0
rthumb 18.1014 -70.1573 0.00315897
3065
root -1.53789 15.9478 -34.1346 6.75432 6.65638 1.04397
lfemur -33.5507 3.45228 -4.29424
ltibia 53.3093 -0 0
lfoot -13.4272 -2.96371 -0.00107448
ltoes -45.3172 0 0
rfemur -35.2118 -3.87444 23.4868
rtibia 61.2548 -0 0
rfoot -19.2548 -27.1617 0.00159743
rtoes -5.37784 0 0
lowerback 12.8139 0.215399 -0.721318
upperback -1.19521 0.303876 1.52129
thorax -8.50102 0.220879 1.97129
lowerneck 2.99765 -7.96213 -11.1501
upperneck -2.26622 -10.8817 9.24392
head -0.0302881 -5.48997 4.53823
lclavicle -5.76476e-15 -3.97569e-15 0
lhumerus 5.9304 -46.0098 90.6377
lradius 71.8467 -0 0
lwrist 0.983059 0 0
lhand -28.387 37.8552 -1.53749e-05
lfingers 7.12502 -0 0
lthumb -1.75972 67.8272 -1.48031e-05
rclavicle -5.76476e-15 -3.97569e-15 0
rhumerus 6.8792 51.4585 -58.1932
rradius 108.825 -0 0
rwrist -41.3265 0 0
rhand -7.81597 -41.311 0.00153782
rfingers 7.12502 -0 0
rthumb 18.0859 -70.4897 0.00148608
3066
root -1.5319 15.9471 -34.1298 6.72142 6.82035 1.03626
lfemur -33.4888 3.40055 -4.34605
ltibia 53.205 -0 0
lfoot -13.5545 -2.95208 -0.000281242
ltoes -45.437 0 0
rfemur -35.1407 -3.81614 23.4233
rtibia 61.252 -0 0
rfoot -19.1808 -27.1319 0.00041813
rtoes -5.54195 0 0
lowerback 12.7982 0.212077 -0.692874
upperback -1.19556 0.303532 1.51703
thorax -8.49211 0.219227 1.95053
lowerneck 2.96427 -7.92045 -11.1191
upperneck -2.23143 -10.8227 9.22758
head -0.0240457 -5.46013 4.52741
lclavicle -5.76476e-15 -3.97569e-15 0
lhumerus 5.54925 -46.087 90.8144
lradius 71.9138 -0 0
lwrist 1.15769 0 0
lhand -28.3872 37.9657 -4.02436e-06
lfingers 7.12502 -0 0
lthumb -1.75991 67.9377 -3.87469e-06
rclavicle -5.76476e-15 -3.97569e-15 0
rhumerus 6.23613 51.5726 -58.6294
rradius 108.994 -0 0
rwrist -41.216 0 0
rhand -7.82613 -41.5189 0.000402501
rfingers 7.12502 -0 0
rthumb 18.0761 -70.6986 0.000388961
3067
root -1.2766 16.0047 -34.0064 6.71 6.87724 1.03356
lfemur -33.4673 3.38261 -4.36404
ltibia 53.1688 0 0
lfoot -13.5986 -2.94804 0
ltoes -45.4786 0 0
rfemur -35.1161 -3.79589 23.4013
rtibia 61.251 0 0
rfoot -19.1551 -27.1216 0
rtoes -5.59888 0 0
lowerback 12.7927 0.210926 -0.683006
upperback -1.19568 0.303413 1.51555
thorax -8.48902 0.218655 1.94332
lowerneck 2.9527 -7.90599 -11.1084
upperneck -2.21936 -10.8022 9.22192
head -0.0218814 -5.44978 4.52366
lclavicle -3.97569e-15 -2.06736e-14 0
lhumerus 5.41681 -46.1136 90.8759
lradius 71.9371 0 0
lwrist 1.21828 0 0
lhand -28.3873 38.004 0
lfingers 7.12502 0 0
lthumb -1.75997 67.976 0
rclavicle -3.97569e-15 -2.06736e-14 0
rhumerus 6.01232 51.6115 -58.7815
rradius 109.053 0 0
rwrist -41.1777 0 0
rhand -7.82966 -41.591 0
rfingers 7.12502 0 0
rthumb 18.0727 -70.771 0
